# Blender 4.5.3 LTS
# www.blender.org
mtllib Cabinet.mtl
o Body
v -1.000000 0.000000 1.000000
v -1.000000 2.000000 1.000000
v -1.000000 -0.000000 -1.000000
v -1.000000 2.000000 -1.000000
v 1.000000 0.136963 0.863037
v 1.000000 1.863037 0.863037
v 1.000000 0.136963 -0.863037
v 1.000000 1.863037 -0.863037
v 1.000000 2.000000 -1.000000
v 1.000000 -0.000000 -1.000000
v 1.000000 0.000000 1.000000
v 1.000000 2.000000 1.000000
v -0.800000 1.863037 -0.863037
v -0.800000 0.136963 -0.863037
v -0.800000 0.136963 0.863037
v -0.800000 1.863037 0.863037
vn -1.0000 -0.0000 -0.0000
vn -0.0000 -0.0000 -1.0000
vn -0.0000 -0.0000 1.0000
vn -0.0000 -1.0000 -0.0000
vn -0.0000 1.0000 -0.0000
vn 1.0000 -0.0000 -0.0000
vt 0.375000 0.000000
vt 0.625000 0.000000
vt 0.625000 0.250000
vt 0.375000 0.250000
vt 0.625000 0.500000
vt 0.375000 0.500000
vt 0.392120 0.517120
vt 0.607880 0.517120
vt 0.375000 0.750000
vt 0.625000 0.750000
vt 0.625000 1.000000
vt 0.375000 1.000000
vt 0.125000 0.500000
vt 0.125000 0.750000
vt 0.875000 0.500000
vt 0.875000 0.750000
vt 0.392120 0.732880
vt 0.607880 0.732880
s 1
f 1/1/1 2/2/1 4/3/1 3/4/1
f 3/4/2 4/3/2 9/5/2 10/6/2
f 7/7/3 8/8/3 13/8/3 14/7/3
f 11/9/3 12/10/3 2/11/3 1/12/3
f 3/13/4 10/6/4 11/9/4 1/14/4
f 9/5/5 4/15/5 2/16/5 12/10/5
f 8/8/6 7/7/6 10/6/6 9/5/6
f 7/7/6 5/17/6 11/9/6 10/6/6
f 6/18/6 8/8/6 9/5/6 12/10/6
f 5/17/6 6/18/6 12/10/6 11/9/6
f 14/7/6 13/8/6 16/18/6 15/17/6
f 6/18/2 5/17/2 15/17/2 16/18/2
f 5/17/5 7/7/5 14/7/5 15/17/5
f 8/8/4 6/18/4 16/18/4 13/8/4
o Divider
v -0.860000 0.940000 0.860000
v -0.860000 1.060000 0.860000
v -0.860000 0.940000 -0.860000
v -0.860000 1.060000 -0.860000
v 0.860000 0.940000 0.860000
v 0.860000 1.060000 0.860000
v 0.860000 0.940000 -0.860000
v 0.860000 1.060000 -0.860000
vn -1.0000 -0.0000 -0.0000
vn -0.0000 -0.0000 -1.0000
vn 1.0000 -0.0000 -0.0000
vn -0.0000 -0.0000 1.0000
vn -0.0000 -1.0000 -0.0000
vn -0.0000 1.0000 -0.0000
vt 0.375000 0.000000
vt 0.625000 0.000000
vt 0.625000 0.250000
vt 0.375000 0.250000
vt 0.625000 0.500000
vt 0.375000 0.500000
vt 0.625000 0.750000
vt 0.375000 0.750000
vt 0.625000 1.000000
vt 0.375000 1.000000
vt 0.125000 0.500000
vt 0.125000 0.750000
vt 0.875000 0.500000
vt 0.875000 0.750000
s 1
f 17/19/7 18/20/7 20/21/7 19/22/7
f 19/22/8 20/21/8 24/23/8 23/24/8
f 23/24/9 24/23/9 22/25/9 21/26/9
f 21/26/10 22/25/10 18/27/10 17/28/10
f 19/29/11 23/24/11 21/26/11 17/30/11
f 24/23/12 20/31/12 18/32/12 22/25/12
o Right_Door
v 1.819152 0.000000 -0.426424
v 1.819152 2.000000 -0.426424
v 1.000000 0.000000 -1.000000
v 1.000000 2.000000 -1.000000
v 1.933867 0.000000 -0.590254
v 1.933867 2.000000 -0.590254
v 1.114715 0.000000 -1.163830
v 1.114715 2.000000 -1.163830
vn -0.5736 -0.0000 0.8192
vn -0.8192 -0.0000 -0.5736
vn 0.5736 -0.0000 -0.8192
vn 0.8192 -0.0000 0.5736
vn -0.0000 -1.0000 -0.0000
vn -0.0000 1.0000 -0.0000
vt 0.375000 0.000000
vt 0.625000 0.000000
vt 0.625000 0.250000
vt 0.375000 0.250000
vt 0.625000 0.500000
vt 0.375000 0.500000
vt 0.625000 0.750000
vt 0.375000 0.750000
vt 0.625000 1.000000
vt 0.375000 1.000000
vt 0.125000 0.500000
vt 0.125000 0.750000
vt 0.875000 0.500000
vt 0.875000 0.750000
s 0
f 25/33/13 26/34/13 28/35/13 27/36/13
f 27/36/14 28/35/14 32/37/14 31/38/14
f 31/38/15 32/37/15 30/39/15 29/40/15
f 29/40/16 30/39/16 26/41/16 25/42/16
f 27/43/17 31/38/17 29/40/17 25/44/17
f 32/37/18 28/45/18 26/46/18 30/39/18
o Left_Door
v 1.000000 0.000000 1.000000
v 1.000000 2.000000 1.000000
v 1.694658 0.000000 0.280660
v 1.694658 2.000000 0.280660
v 1.143868 0.000000 1.138932
v 1.143868 2.000000 1.138932
v 1.838526 0.000000 0.419592
v 1.838526 2.000000 0.419592
vn -0.7193 -0.0000 -0.6947
vn 0.6947 -0.0000 -0.7193
vn 0.7193 -0.0000 0.6947
vn -0.6947 -0.0000 0.7193
vn -0.0000 -1.0000 -0.0000
vn -0.0000 1.0000 -0.0000
vt 0.375000 0.000000
vt 0.625000 0.000000
vt 0.625000 0.250000
vt 0.375000 0.250000
vt 0.625000 0.500000
vt 0.375000 0.500000
vt 0.625000 0.750000
vt 0.375000 0.750000
vt 0.625000 1.000000
vt 0.375000 1.000000
vt 0.125000 0.500000
vt 0.125000 0.750000
vt 0.875000 0.500000
vt 0.875000 0.750000
s 0
f 33/47/19 34/48/19 36/49/19 35/50/19
f 35/50/20 36/49/20 40/51/20 39/52/20
f 39/52/21 40/51/21 38/53/21 37/54/21
f 37/54/22 38/53/22 34/55/22 33/56/22
f 35/57/23 39/52/23 37/54/23 33/58/23
f 40/51/24 36/59/24 34/60/24 38/53/24
